<?xml version="1.0" standalone="no"?>
<!DOCTYPE svg PUBLIC "-//W3C//DTD SVG 20010904//EN"
 "http://www.w3.org/TR/2001/REC-SVG-20010904/DTD/svg10.dtd">
<svg version="1.0" xmlns="http://www.w3.org/2000/svg"
 width="71.000000pt" height="80.000000pt" viewBox="0 0 71.000000 80.000000"
 preserveAspectRatio="xMidYMid meet">
<metadata>
Created by potrace 1.16, written by Peter Selinger 2001-2019
</metadata>
<g transform="translate(0.000000,80.000000) scale(0.100000,-0.100000)"
fill="#000000" stroke="none">
<path d="M133 724 l-133 -75 0 -287 0 -287 69 -37 69 -38 178 0 179 0 108 61
107 60 -2 242 -3 242 -165 97 c-153 89 -169 97 -220 97 -51 1 -65 -5 -187 -75z
m197 -344 c0 -179 0 -179 -25 -205 -29 -28 -35 -30 -35 -12 0 7 -9 18 -20 25
-19 11 -20 23 -20 162 0 141 8 179 25 128 7 -20 9 -18 12 15 5 47 23 49 23 1
0 -21 4 -33 10 -29 6 3 10 26 10 51 0 24 5 44 10 44 6 0 10 -67 10 -180z"/>
</g>
</svg>
