<svg fill="none" height="360" viewBox="0 0 360 360" width="360" xmlns="http://www.w3.org/2000/svg"><path d="m0 132.02c0-46.6982 0-70.0474 9.2321-87.8199 7.7798-14.9767 19.9913-27.1882 34.968-34.968 17.7725-9.2321 41.1217-9.2321 87.8199-9.2321h95.96c46.698 0 70.047 0 87.82 9.2321 14.977 7.7798 27.188 19.9913 34.968 34.968 9.232 17.7725 9.232 41.1217 9.232 87.8199v95.96c0 46.698 0 70.047-9.232 87.82-7.78 14.977-19.991 27.188-34.968 34.968-17.773 9.232-41.122 9.232-87.82 9.232h-95.96c-46.6982 0-70.0474 0-87.8199-9.232-14.9767-7.78-27.1882-19.991-34.968-34.968-9.2321-17.773-9.2321-41.122-9.2321-87.82z" fill="#ea5252"/><path clip-rule="evenodd" d="m326.836 197.001c-1.068-.856-2.27-1.433-3.577-1.681-7.722 7.698-17.146 15.806-25.514 21.255-3.861 2.566-8.717 3.849-11.932 3.849-7.402 0-10.617-7.057-11.583-18.275-1.288-15.066-2.156-33.113-2.156-61.006 0-28.607-6.492-48.0549-23.788-49.5815-.731-.0649-1.47-.1096-2.241-.1096-10.617 0-15.766 5.4486-22.522 19.2361-5.789 11.86-14.798 29.172-31.526 61.872-14.478 28.213-30.564 53.219-44.401 70.531-3.853 4.799-6.898 8.096-9.76 9.972-1.912 1.258-3.748 1.887-5.68 1.887-5.461 0-9.448-4.608-10.78-15.338-.316-2.55-.483-5.445-.483-8.705 0-22.119 8.368-58.027 22.842-110.925 10.617-38.4691 6.115-64.7539-17.052-64.7539-.037 0-.073 0-.11 0-.048 0-.097 0-.15 0l-.016.004c-5.246.0609-9.594 1.961-13.784 5.2578-4.125 3.248-8.254 10.2638-12.107 19.6953-4.3444 10.6252-30.7592 63.6088-72.8011 90.9048-.4953 10.377 5.3796 20.751 17.2837 21.876 10.8363 1.027 18.5301-3.541 28.4367-10.195-.743 3.309-1.4292 6.402-2.0544 9.232-.739 3.342-1.3683 6.224-1.8717 8.551-.7552 3.463-1.2343 5.692-1.3764 6.309-1.3763 6.314-2.3589 12.31-2.9963 18.002-5.9277 52.988 18.6316 79.135 47.3935 79.135 4.807 0 9.569-.572 14.299-1.774 31.689-8.035 62.196-44.385 98.306-128.063-.548 9.103-.605 17.605-.211 25.494 2.379 47.957 21.348 62.346 48.148 62.346 20.268 0 39.249-10.577 48.9-23.723 7.08-9.298 9.975-19.557 9.975-27.572 0-6.22-1.973-11.185-5.111-13.707z" fill="#fff" fill-rule="evenodd"/></svg>